<?xml version="1.0" encoding="UTF-8"?>
<svg width="201px" height="20px" viewBox="0 0 201 20" version="1.1" xmlns="http://www.w3.org/2000/svg" xmlns:xlink="http://www.w3.org/1999/xlink">
    <title>KLOKPACK6XXX</title>
    <g id="Page-1" stroke="none" stroke-width="1" fill="none" fill-rule="evenodd">
        <g id="KLOKPACK6XXX" transform="translate(0.250000, 0.875000)" fill-rule="nonzero">
            <polygon id="Path" fill="#94FF00" points="10.6 18.125 4.525 10.25 4.525 18.125 0 18.125 0 0.475 4.525 0.475 4.525 6.9 9.8 0.475 15.15 0.475 8.425 8.4 16.175 18.125"></polygon>
            <polygon id="Path" fill="#94FF00" points="17.15 0.475 21.675 0.475 21.675 14.225 26.4 14.225 26.4 18.125 17.15 18.125"></polygon>
            <path d="M35.825,18.6 C33.9916667,18.6 32.4208333,18.2416667 31.1125,17.525 C29.8041667,16.8083333 28.8166667,15.7833333 28.15,14.45 C27.7666667,13.7666667 27.475,12.9875 27.275,12.1125 C27.075,11.2375 26.975,10.3 26.975,9.3 C26.975,7.55 27.275,5.98333333 27.875,4.6 C28.525,3.13333333 29.5333333,2 30.9,1.2 C32.2666667,0.4 33.9083333,0 35.825,0 C37.7416667,0 39.3791667,0.395833333 40.7375,1.1875 C42.0958333,1.97916667 43.1,3.1 43.75,4.55 C44.35,5.96666667 44.65,7.55 44.65,9.3 C44.65,11.1 44.3416667,12.6916667 43.725,14.075 C43.075,15.525 42.075,16.6416667 40.725,17.425 C39.375,18.2083333 37.7416667,18.6 35.825,18.6 Z M35.825,14.6 C36.7083333,14.6 37.4375,14.4166667 38.0125,14.05 C38.5875,13.6833333 39.025,13.1583333 39.325,12.475 C39.5083333,12.0583333 39.6416667,11.6 39.725,11.1 C39.8083333,10.6 39.85,10 39.85,9.3 C39.85,8.6 39.8125,8 39.7375,7.5 C39.6625,7 39.5333333,6.53333333 39.35,6.1 C38.6833333,4.7 37.5083333,4 35.825,4 C34.1083333,4 32.9333333,4.7 32.3,6.1 C32.1166667,6.51666667 31.9875,6.97083333 31.9125,7.4625 C31.8375,7.95416667 31.8,8.56666667 31.8,9.3 C31.8,10 31.8416667,10.6 31.925,11.1 C32.0083333,11.6 32.1416667,12.0583333 32.325,12.475 C32.9583333,13.8916667 34.125,14.6 35.825,14.6 Z" id="Shape" fill="#94FF00"></path>
            <polygon id="Path" fill="#94FF00" points="57.2 18.125 51.125 10.25 51.125 18.125 46.6 18.125 46.6 0.475 51.125 0.475 51.125 6.9 56.4 0.475 61.75 0.475 55.025 8.4 62.775 18.125"></polygon>
            <path d="M63.75,0.475 L71.45,0.475 C72.8666667,0.475 74.0291667,0.6875 74.9375,1.1125 C75.8458333,1.5375 76.5,2.20833333 76.9,3.125 C77.2333333,3.925 77.4,4.85833333 77.4,5.925 C77.4,6.89166667 77.2333333,7.775 76.9,8.575 C76.4833333,9.49166667 75.8208333,10.1833333 74.9125,10.65 C74.0041667,11.1166667 72.85,11.35 71.45,11.35 L68.275,11.35 L68.275,18.125 L63.75,18.125 L63.75,0.475 Z M70.175,8.075 C70.7916667,8.075 71.3,7.99583333 71.7,7.8375 C72.1,7.67916667 72.3833333,7.425 72.55,7.075 C72.6833333,6.725 72.75,6.35 72.75,5.95 C72.75,5.55 72.6833333,5.175 72.55,4.825 C72.3833333,4.475 72.1041667,4.225 71.7125,4.075 C71.3208333,3.925 70.8,3.85 70.15,3.85 L68.275,3.85 L68.275,8.075 L70.175,8.075 Z" id="Shape" fill="#94FF00"></path>
            <path d="M88.625,14.8 L81.725,14.8 L80.7,18.125 L76,18.125 L81.8,0.475 L88.55,0.475 L94.35,18.125 L89.65,18.125 L88.625,14.8 Z M87.575,11.4 L85.2,3.75 L85.15,3.75 L82.775,11.4 L87.575,11.4 Z" id="Shape" fill="#94FF00"></path>
            <path d="M103.15,18.6 C101.216667,18.6 99.5666667,18.2041667 98.2,17.4125 C96.8333333,16.6208333 95.8166667,15.4666667 95.15,13.95 C94.5666667,12.6333333 94.275,11.0833333 94.275,9.3 C94.275,7.51666667 94.5666667,5.96666667 95.15,4.65 C95.8166667,3.16666667 96.8333333,2.02083333 98.2,1.2125 C99.5666667,0.404166667 101.216667,0 103.15,0 C104.333333,0 105.429167,0.179166667 106.4375,0.5375 C107.445833,0.895833333 108.325,1.40833333 109.075,2.075 C109.775,2.70833333 110.320833,3.46666667 110.7125,4.35 C111.104167,5.23333333 111.308333,6.18333333 111.325,7.2 L106.525,7.2 C106.475,6.2 106.133333,5.40833333 105.5,4.825 C105.183333,4.54166667 104.825,4.33333333 104.425,4.2 C104.025,4.06666667 103.541667,4 102.975,4 C102.158333,4 101.466667,4.16666667 100.9,4.5 C100.333333,4.83333333 99.9083333,5.325 99.625,5.975 C99.4416667,6.39166667 99.3125,6.85416667 99.2375,7.3625 C99.1625,7.87083333 99.125,8.50833333 99.125,9.275 C99.125,10.075 99.1625,10.7375 99.2375,11.2625 C99.3125,11.7875 99.4333333,12.25 99.6,12.65 C100.2,13.95 101.333333,14.6 103,14.6 C104.133333,14.6 105,14.3083333 105.6,13.725 C105.883333,13.475 106.1125,13.1625 106.2875,12.7875 C106.4625,12.4125 106.558333,12 106.575,11.55 L111.4,11.55 C111.383333,12.5333333 111.183333,13.45 110.8,14.3 C110.416667,15.15 109.883333,15.875 109.2,16.475 C108.45,17.1583333 107.554167,17.6833333 106.5125,18.05 C105.470833,18.4166667 104.35,18.6 103.15,18.6 Z" id="Path" fill="#94FF00"></path>
            <polygon id="Path" fill="#94FF00" points="123.875 18.125 117.8 10.25 117.8 18.125 113.275 18.125 113.275 0.475 117.8 0.475 117.8 6.9 123.075 0.475 128.425 0.475 121.7 8.4 129.45 18.125"></polygon>
            <path d="M143.475,9.4 C143.825,10.2 144,11.1083333 144,12.125 C144,13.225 143.816667,14.175 143.45,14.975 C142.916667,16.1416667 142.0625,17.0375 140.8875,17.6625 C139.7125,18.2875 138.316667,18.6 136.7,18.6 C134.916667,18.6 133.445833,18.2541667 132.2875,17.5625 C131.129167,16.8708333 130.25,15.8583333 129.65,14.525 C129.05,13.175 128.75,11.5 128.75,9.5 C128.75,7.33333333 129.075,5.55 129.725,4.15 C130.325,2.8 131.2125,1.77083333 132.3875,1.0625 C133.5625,0.354166667 135.008333,0 136.725,0 C137.858333,0 138.883333,0.158333333 139.8,0.475 C140.716667,0.791666667 141.483333,1.26666667 142.1,1.9 C142.983333,2.78333333 143.525,3.89166667 143.725,5.225 L139.4,5.225 C139.283333,4.775 139.075,4.4 138.775,4.1 C138.275,3.6 137.583333,3.35 136.7,3.35 C135.283333,3.35 134.3,3.98333333 133.75,5.25 C133.383333,6.03333333 133.2,7.08333333 133.2,8.4 C133.7,7.76666667 134.3625,7.27916667 135.1875,6.9375 C136.0125,6.59583333 136.95,6.425 138,6.425 C139.316667,6.425 140.45,6.67916667 141.4,7.1875 C142.35,7.69583333 143.041667,8.43333333 143.475,9.4 Z M139.125,13.7 C139.308333,13.2833333 139.4,12.8166667 139.4,12.3 C139.4,11.8166667 139.308333,11.35 139.125,10.9 C138.925,10.45 138.6125,10.1083333 138.1875,9.875 C137.7625,9.64166667 137.241667,9.525 136.625,9.525 C135.991667,9.525 135.454167,9.65 135.0125,9.9 C134.570833,10.15 134.25,10.5083333 134.05,10.975 C133.866667,11.3583333 133.775,11.8083333 133.775,12.325 C133.775,12.8583333 133.858333,13.3 134.025,13.65 C134.225,14.1166667 134.545833,14.475 134.9875,14.725 C135.429167,14.975 135.966667,15.1 136.6,15.1 C137.216667,15.1 137.741667,14.9833333 138.175,14.75 C138.608333,14.5166667 138.925,14.1666667 139.125,13.7 Z" id="Shape" fill="#94FF00"></path>
            <polygon id="Path" fill="#FFFFFF" points="150.375 8.675 144.625 0.475 149.925 0.475 153.125 5.35 156.325 0.475 161.625 0.475 155.875 8.75 162.375 18.125 157.025 18.125 153.125 12.225 149.225 18.125 143.825 18.125"></polygon>
            <polygon id="Path" fill="#FFFFFF" points="169.225 8.675 163.475 0.475 168.775 0.475 171.975 5.35 175.175 0.475 180.475 0.475 174.725 8.75 181.225 18.125 175.875 18.125 171.975 12.225 168.075 18.125 162.675 18.125"></polygon>
            <polygon id="Path" fill="#FFFFFF" points="188.075 8.675 182.325 0.475 187.625 0.475 190.825 5.35 194.025 0.475 199.325 0.475 193.575 8.75 200.075 18.125 194.725 18.125 190.825 12.225 186.925 18.125 181.525 18.125"></polygon>
        </g>
    </g>
</svg>