<?xml version="1.0" encoding="UTF-8"?>
<!-- Generated by Pixelmator Pro 3.0.1 -->
<svg width="164" height="5" viewBox="0 0 164 5" xmlns="http://www.w3.org/2000/svg" xmlns:xlink="http://www.w3.org/1999/xlink">
    <g id="Group">
        <g id="g1">
            <path id="Path" fill="#ffffff" stroke="none" d="M 1 0 L 2 0 L 2 5 L 1 5 Z"/>
            <path id="path1" fill="#ffffff" stroke="none" d="M 3 0 L 4 0 L 4 5 L 3 5 Z"/>
            <path id="path2" fill="#ffffff" stroke="none" d="M 5 0 L 6 0 L 6 5 L 5 5 Z"/>
            <path id="path3" fill="#ffffff" stroke="none" d="M 7 0 L 8 0 L 8 5 L 7 5 Z"/>
            <path id="path4" fill="#ffffff" stroke="none" d="M 9 0 L 10 0 L 10 5 L 9 5 Z"/>
            <path id="path5" fill="#ffffff" stroke="none" d="M 11 0 L 12 0 L 12 5 L 11 5 Z"/>
            <path id="path6" fill="#ffffff" stroke="none" d="M 13 0 L 14 0 L 14 5 L 13 5 Z"/>
            <path id="path7" fill="#ffffff" stroke="none" d="M 15 0 L 16 0 L 16 5 L 15 5 Z"/>
            <path id="path8" fill="#ffffff" stroke="none" d="M 17 0 L 18 0 L 18 5 L 17 5 Z"/>
            <path id="path9" fill="#ffffff" stroke="none" d="M 19 0 L 20 0 L 20 5 L 19 5 Z"/>
            <path id="path10" fill="#ffffff" stroke="none" d="M 21 0 L 22 0 L 22 5 L 21 5 Z"/>
            <path id="path11" fill="#ffffff" stroke="none" d="M 23 0 L 24 0 L 24 5 L 23 5 Z"/>
            <path id="path12" fill="#ffffff" stroke="none" d="M 25 0 L 26 0 L 26 5 L 25 5 Z"/>
            <path id="path13" fill="#ffffff" stroke="none" d="M 27 0 L 28 0 L 28 5 L 27 5 Z"/>
            <path id="path14" fill="#ffffff" stroke="none" d="M 29 0 L 30 0 L 30 5 L 29 5 Z"/>
            <path id="path15" fill="#ffffff" stroke="none" d="M 31 0 L 32 0 L 32 5 L 31 5 Z"/>
            <path id="path16" fill="#ffffff" stroke="none" d="M 33 0 L 34 0 L 34 5 L 33 5 Z"/>
            <path id="path17" fill="#ffffff" stroke="none" d="M 35 0 L 36 0 L 36 5 L 35 5 Z"/>
            <path id="path18" fill="#ffffff" stroke="none" d="M 37 0 L 38 0 L 38 5 L 37 5 Z"/>
            <path id="path19" fill="#ffffff" stroke="none" d="M 39 0 L 40 0 L 40 5 L 39 5 Z"/>
            <path id="path20" fill="#ffffff" stroke="none" d="M 41 0 L 42 0 L 42 5 L 41 5 Z"/>
            <path id="path21" fill="#ffffff" stroke="none" d="M 43 0 L 44 0 L 44 5 L 43 5 Z"/>
            <path id="path22" fill="#ffffff" stroke="none" d="M 45 0 L 46 0 L 46 5 L 45 5 Z"/>
            <path id="path23" fill="#ffffff" stroke="none" d="M 47 0 L 48 0 L 48 5 L 47 5 Z"/>
            <path id="path24" fill="#ffffff" stroke="none" d="M 49 0 L 50 0 L 50 5 L 49 5 Z"/>
            <path id="path25" fill="#ffffff" stroke="none" d="M 51 0 L 52 0 L 52 5 L 51 5 Z"/>
            <path id="path26" fill="#ffffff" stroke="none" d="M 53 0 L 54 0 L 54 5 L 53 5 Z"/>
            <path id="path27" fill="#ffffff" stroke="none" d="M 55 0 L 56 0 L 56 5 L 55 5 Z"/>
            <path id="path28" fill="#ffffff" stroke="none" d="M 57 0 L 58 0 L 58 5 L 57 5 Z"/>
            <path id="path29" fill="#ffffff" stroke="none" d="M 59 0 L 60 0 L 60 5 L 59 5 Z"/>
            <path id="path30" fill="#ffffff" stroke="none" d="M 61 0 L 62 0 L 62 5 L 61 5 Z"/>
            <path id="path31" fill="#ffffff" stroke="none" d="M 63 0 L 64 0 L 64 5 L 63 5 Z"/>
            <path id="path32" fill="#ffffff" stroke="none" d="M 65 0 L 66 0 L 66 5 L 65 5 Z"/>
            <path id="path33" fill="#ffffff" stroke="none" d="M 67 0 L 68 0 L 68 5 L 67 5 Z"/>
            <path id="path34" fill="#ffffff" stroke="none" d="M 69 0 L 70 0 L 70 5 L 69 5 Z"/>
            <path id="path35" fill="#ffffff" stroke="none" d="M 71 0 L 72 0 L 72 5 L 71 5 Z"/>
            <path id="path36" fill="#ffffff" stroke="none" d="M 73 0 L 74 0 L 74 5 L 73 5 Z"/>
            <path id="path37" fill="#ffffff" stroke="none" d="M 75 0 L 76 0 L 76 5 L 75 5 Z"/>
            <path id="path38" fill="#ffffff" stroke="none" d="M 77 0 L 78 0 L 78 5 L 77 5 Z"/>
            <path id="path39" fill="#ffffff" stroke="none" d="M 79 0 L 80 0 L 80 5 L 79 5 Z"/>
            <path id="path40" fill="#ffffff" stroke="none" d="M 81 0 L 82 0 L 82 5 L 81 5 Z"/>
            <path id="path41" fill="#ffffff" stroke="none" d="M 83 0 L 84 0 L 84 5 L 83 5 Z"/>
            <path id="path42" fill="#ffffff" stroke="none" d="M 85 0 L 86 0 L 86 5 L 85 5 Z"/>
            <path id="path43" fill="#ffffff" stroke="none" d="M 87 0 L 88 0 L 88 5 L 87 5 Z"/>
            <path id="path44" fill="#ffffff" stroke="none" d="M 89 0 L 90 0 L 90 5 L 89 5 Z"/>
            <path id="path45" fill="#ffffff" stroke="none" d="M 91 0 L 92 0 L 92 5 L 91 5 Z"/>
            <path id="path46" fill="#ffffff" stroke="none" d="M 93 0 L 94 0 L 94 5 L 93 5 Z"/>
            <path id="path47" fill="#ffffff" stroke="none" d="M 95 0 L 96 0 L 96 5 L 95 5 Z"/>
            <path id="path48" fill="#ffffff" stroke="none" d="M 97 0 L 98 0 L 98 5 L 97 5 Z"/>
            <path id="path49" fill="#ffffff" stroke="none" d="M 99 0 L 100 0 L 100 5 L 99 5 Z"/>
            <path id="path50" fill="#ffffff" stroke="none" d="M 101 0 L 102 0 L 102 5 L 101 5 Z"/>
            <path id="path51" fill="#ffffff" stroke="none" d="M 103 0 L 104 0 L 104 5 L 103 5 Z"/>
            <path id="path52" fill="#ffffff" stroke="none" d="M 105 0 L 106 0 L 106 5 L 105 5 Z"/>
            <path id="path53" fill="#ffffff" stroke="none" d="M 107 0 L 108 0 L 108 5 L 107 5 Z"/>
            <path id="path54" fill="#ffffff" stroke="none" d="M 109 0 L 110 0 L 110 5 L 109 5 Z"/>
            <path id="path55" fill="#ffffff" stroke="none" d="M 111 0 L 112 0 L 112 5 L 111 5 Z"/>
            <path id="path56" fill="#ffffff" stroke="none" d="M 113 0 L 114 0 L 114 5 L 113 5 Z"/>
            <path id="path57" fill="#ffffff" stroke="none" d="M 115 0 L 116 0 L 116 5 L 115 5 Z"/>
            <path id="path58" fill="#ffffff" stroke="none" d="M 117 0 L 118 0 L 118 5 L 117 5 Z"/>
            <path id="path59" fill="#ffffff" stroke="none" d="M 119 0 L 120 0 L 120 5 L 119 5 Z"/>
            <path id="path60" fill="#ffffff" stroke="none" d="M 121 0 L 122 0 L 122 5 L 121 5 Z"/>
            <path id="path61" fill="#ffffff" stroke="none" d="M 123 0 L 124 0 L 124 5 L 123 5 Z"/>
            <path id="path62" fill="#ffffff" stroke="none" d="M 125 0 L 126 0 L 126 5 L 125 5 Z"/>
            <path id="path63" fill="#ffffff" stroke="none" d="M 127 0 L 128 0 L 128 5 L 127 5 Z"/>
            <path id="path64" fill="#ffffff" stroke="none" d="M 129 0 L 130 0 L 130 5 L 129 5 Z"/>
            <path id="path65" fill="#ffffff" stroke="none" d="M 131 0 L 132 0 L 132 5 L 131 5 Z"/>
            <path id="path66" fill="#ffffff" stroke="none" d="M 133 0 L 134 0 L 134 5 L 133 5 Z"/>
            <path id="path67" fill="#ffffff" stroke="none" d="M 135 0 L 136 0 L 136 5 L 135 5 Z"/>
            <path id="path68" fill="#ffffff" stroke="none" d="M 137 0 L 138 0 L 138 5 L 137 5 Z"/>
            <path id="path69" fill="#ffffff" stroke="none" d="M 139 0 L 140 0 L 140 5 L 139 5 Z"/>
            <path id="path70" fill="#ffffff" stroke="none" d="M 141 0 L 142 0 L 142 5 L 141 5 Z"/>
            <path id="path71" fill="#ffffff" stroke="none" d="M 143 0 L 144 0 L 144 5 L 143 5 Z"/>
            <path id="path72" fill="#ffffff" stroke="none" d="M 145 0 L 146 0 L 146 5 L 145 5 Z"/>
            <path id="path73" fill="#ffffff" stroke="none" d="M 147 0 L 148 0 L 148 5 L 147 5 Z"/>
            <path id="path74" fill="#ffffff" stroke="none" d="M 149 0 L 150 0 L 150 5 L 149 5 Z"/>
            <path id="path75" fill="#ffffff" stroke="none" d="M 151 0 L 152 0 L 152 5 L 151 5 Z"/>
            <path id="path76" fill="#ffffff" stroke="none" d="M 153 0 L 154 0 L 154 5 L 153 5 Z"/>
            <path id="path77" fill="#ffffff" stroke="none" d="M 155 0 L 156 0 L 156 5 L 155 5 Z"/>
            <path id="path78" fill="#ffffff" stroke="none" d="M 157 0 L 158 0 L 158 5 L 157 5 Z"/>
            <path id="path79" fill="#ffffff" stroke="none" d="M 159 0 L 160 0 L 160 5 L 159 5 Z"/>
            <path id="path80" fill="#ffffff" stroke="none" d="M 161 0 L 162 0 L 162 5 L 161 5 Z"/>
            <path id="path81" fill="#ffffff" stroke="none" d="M 163 0 L 164 0 L 164 5 L 163 5 Z"/>
        </g>
    </g>
</svg>
