<?xml version="1.0" encoding="utf-8"?>
<!-- Generator: Adobe Illustrator 28.4.1, SVG Export Plug-In . SVG Version: 6.00 Build 0)  -->
<svg version="1.1"
	 id="svg29" xmlns:rdf="http://www.w3.org/1999/02/22-rdf-syntax-ns#" xmlns:svg="http://www.w3.org/2000/svg" xmlns:dc="http://purl.org/dc/elements/1.1/" xmlns:cc="http://creativecommons.org/ns#"
	 xmlns="http://www.w3.org/2000/svg" xmlns:xlink="http://www.w3.org/1999/xlink" x="0px" y="0px" viewBox="0 0 35 30"
	 style="enable-background:new 0 0 35 30;" xml:space="preserve">
<style type="text/css">
	.st0{fill:#7800A8;}
	.st1{opacity:0.5479;fill:url(#path27_00000173145584271845366050000003086797736810652343_);enable-background:new    ;}
</style>
<path id="path19" d="M15.1,6.2l0,6c0,0.6,0.2,1,0.7,1.4c0.4,0.3,1,0.5,1.6,0.5c0.6,0,1.2-0.1,1.6-0.4c0.4-0.3,0.7-0.8,0.8-1.4l0,0v0
	l0-6C17.6,5.7,17.4,5.7,15.1,6.2z"/>
<path id="rect825" class="st0" d="M17.5,5.2c1,0,1.7,0,1.7,0.9V12c0,1-0.6,1.5-1.6,1.5S15.9,13,15.9,12V6.2
	C15.9,5.2,16.5,5.2,17.5,5.2z"/>
<radialGradient id="path27_00000031204624392150035640000012052177377426889627_" cx="3904.0593" cy="-11176.7676" r="21.4679" gradientTransform="matrix(7.335364e-02 0 0 -3.606549e-02 -268.8772 -397.0764)" gradientUnits="userSpaceOnUse">
	<stop  offset="0" style="stop-color:#AC00F0"/>
	<stop  offset="0.6106" style="stop-color:#AC00F0"/>
	<stop  offset="1" style="stop-color:#AC00F0;stop-opacity:0"/>
</radialGradient>
<path id="path27" style="opacity:0.5479;fill:url(#path27_00000031204624392150035640000012052177377426889627_);enable-background:new    ;" d="
	M19.1,6c0,0.4-0.7,0.8-1.6,0.8c-0.9,0-1.6-0.3-1.6-0.8c0,0,0,0,0,0c0-0.4,0.7-0.8,1.6-0.8C18.4,5.2,19.1,5.6,19.1,6
	C19.1,6,19.1,6,19.1,6z"/>
</svg>
