<?xml version="1.0" encoding="utf-8"?>
<!-- Generator: Adobe Illustrator 28.4.1, SVG Export Plug-In . SVG Version: 6.00 Build 0)  -->
<svg version="1.1"
	 id="svg29" xmlns:rdf="http://www.w3.org/1999/02/22-rdf-syntax-ns#" xmlns:svg="http://www.w3.org/2000/svg" xmlns:dc="http://purl.org/dc/elements/1.1/" xmlns:cc="http://creativecommons.org/ns#"
	 xmlns="http://www.w3.org/2000/svg" xmlns:xlink="http://www.w3.org/1999/xlink" x="0px" y="0px" viewBox="0 0 40 34"
	 style="enable-background:new 0 0 40 34;" xml:space="preserve">
<style type="text/css">
	.st0{fill:#7800A8;}
	.st1{opacity:0.736;fill:url(#path27_00000168106409958640763590000007783706496395359648_);enable-background:new    ;}
</style>
<path id="path19" d="M17.3,6.9l0,6.9c0,0.7,0.3,1.2,0.8,1.6c0.5,0.4,1.1,0.5,1.9,0.5c0.7,0,1.3-0.1,1.9-0.5c0.5-0.4,0.8-0.9,0.9-1.6
	l0,0v0l0-6.9C20.2,6.3,19.8,6.3,17.3,6.9z"/>
<path id="rect825" class="st0" d="M19.9,5.7c1.1,0,1.9,0,1.9,1.1v6.7c0,1.1-0.7,1.7-1.8,1.7s-1.8-0.6-1.8-1.7V6.8
	C18.2,5.7,18.8,5.7,19.9,5.7z"/>
<radialGradient id="path27_00000003789241246952055670000007331280845609440153_" cx="3394.1331" cy="-9719.083" r="21.4679" gradientTransform="matrix(8.383273e-02 0 0 -4.121770e-02 -264.5397 -394.0049)" gradientUnits="userSpaceOnUse">
	<stop  offset="0" style="stop-color:#AC00F0"/>
	<stop  offset="0.6106" style="stop-color:#7800A8"/>
	<stop  offset="1" style="stop-color:#7800A8;stop-opacity:0.45"/>
</radialGradient>
<path id="path27" style="opacity:0.736;fill:url(#path27_00000003789241246952055670000007331280845609440153_);enable-background:new    ;" d="
	M21.8,6.6c0,0.5-0.8,0.9-1.8,0.9c-1,0-1.8-0.4-1.8-0.9c0,0,0,0,0,0c0-0.5,0.8-0.9,1.8-0.9C21,5.7,21.8,6.1,21.8,6.6
	C21.8,6.6,21.8,6.6,21.8,6.6z"/>
</svg>
