<?xml version="1.0" encoding="utf-8"?>
<!-- Generator: Adobe Illustrator 28.4.1, SVG Export Plug-In . SVG Version: 6.00 Build 0)  -->
<svg version="1.1" id="Laag_1" xmlns="http://www.w3.org/2000/svg" xmlns:xlink="http://www.w3.org/1999/xlink" x="0px" y="0px"
	 viewBox="0 0 42 19" style="enable-background:new 0 0 42 19;" xml:space="preserve">
<style type="text/css">
	.st0{opacity:0.15;enable-background:new    ;}
	.st1{opacity:0.5;enable-background:new    ;}
	.st2{opacity:0.8;enable-background:new    ;}
	.st3{fill:#2A2A2A;}
	.st4{fill:#050505;}
	.st5{fill:#1A1A1A;}
	.st6{fill:#141414;}
	.st7{fill:#4E006C;}
	.st8{fill:#AC00F0;}
	.st9{fill:#7800A8;}
	.st10{fill:#3B0052;}
	.st11{fill:#9A00D6;}
	.st12{fill:#66008F;}
	.st13{fill:#BA0AFF;}
	.st14{fill:#8B00C2;}
	.st15{fill:#5F0085;}
</style>
<path class="st0" d="M4.8,16.1C5.4,16.7,6.3,17,6.9,17l29.7,0c1.4,0,2.8-1,3-2.7c0,2.1-0.4,3.7-2.3,3.7L7.4,18
	C6.3,18,5,17.4,4.8,16.1L4.8,16.1z"/>
<path class="st1" d="M4.3,15.2C5,15.8,5.8,16,6.4,16l29.6,0c2.1,0,3.1-1.7,3.1-3l0-2h-1V8l1,0c0-0.6-0.2-1.3-0.6-1.8
	c0.9,0.5,1.1,1.7,1.1,2.8v5c0,1.7-1.3,3-3,3L6.9,17C5.8,17,4.3,16.1,4.3,15.2L4.3,15.2z"/>
<path class="st2" d="M6.4,5c-1.7,0-3,1.3-3,3H4v3H3.4v2c0,1.7,1.3,3,3,3H36c1.7,0,3-1.3,3-3l0-2h-1V8l1,0c0-1.7-1.3-3-3-3L6.4,5z"/>
<path class="st3" d="M5,4h32c1.1,0,2,0.9,2,2v3c0,1.1-0.9,2-2,2H5c-1.1,0-2-0.9-2-2V6C3,4.9,3.9,4,5,4z"/>
<path class="st4" d="M5,8h32c1.1,0,2,0.9,2,2v3c0,1.1-0.9,2-2,2H5c-1.1,0-2-0.9-2-2v-3C3,8.9,3.9,8,5,8z"/>
<path class="st5" d="M4,9h34c0.6,0,1,0.9,1,1.9v1.1c0,1.1-0.4,1.9-1,1.9H4c-0.6,0-1-0.9-1-1.9v-1.1C3,9.9,3.4,9,4,9z"/>
<path class="st6" d="M4,5h34c0.6,0,1,0.9,1,1.9v1.1c0,1.1-0.4,1.9-1,1.9H4c-0.6,0-1-0.9-1-1.9V6.9C3,5.9,3.4,5,4,5z"/>
<path class="st7" d="M4,8h34v1H4V8z"/>
<path class="st8" d="M4,10h34v1H4V10z"/>
<path class="st9" d="M4,9h34v1H4V9z"/>
<path class="st10" d="M39,8h-1v1h1V8z"/>
<path class="st11" d="M39,10h-1v1h1V10z"/>
<path class="st12" d="M39,9h-1v1h1V9z"/>
<path class="st13" d="M4,10H3v1h1V10z"/>
<path class="st14" d="M4,9H3v1h1V9z"/>
<rect x="3" y="8" class="st15" width="1" height="1"/>
</svg>
