<?xml version="1.0" encoding="UTF-8" standalone="no"?>
<!DOCTYPE svg PUBLIC "-//W3C//DTD SVG 1.1//EN" "http://www.w3.org/Graphics/SVG/1.1/DTD/svg11.dtd">
<svg width="100%" height="100%" viewBox="0 0 19 40" version="1.1" xmlns="http://www.w3.org/2000/svg" xmlns:xlink="http://www.w3.org/1999/xlink" xml:space="preserve" xmlns:serif="http://www.serif.com/" style="fill-rule:evenodd;clip-rule:evenodd;stroke-linejoin:round;stroke-miterlimit:2;">
    <path d="M4,31.998L4,34C4,35.662 5.338,37 7,37L12.014,37.002C13.676,37.002 15.014,35.664 15.014,34.002L15,32L4,31.998Z" style="fill-opacity:0.9;fill-rule:nonzero;"/>
    <path d="M5.438,37.278C5.869,37.649 6.559,38 7.512,38L12.5,38C13.915,38 14.999,37 15.33,36C15.33,37.662 14.662,39 13,39L8,39C6.912,39 5.796,38.683 5.438,37.278L5.438,37.278Z" style="fill-opacity:0.15;fill-rule:nonzero;"/>
    <path d="M4.938,36.183C5.505,36.702 6.198,37 6.983,37L11.898,37C13.999,37 14.999,35.347 14.999,34L14.999,7C14.999,6.427 14.801,5.708 14.419,5.223C15.281,5.748 15.5,6.912 15.5,8L15.5,35C15.5,36.662 14.162,38 12.5,38L7.5,38C6.412,38 5,37.468 4.938,36.183L4.938,36.183Z" style="fill-opacity:0.6;fill-rule:nonzero;"/>
    <path d="M4,34L4,5C4,3.892 4.892,3 6,3L9,3C10.108,3 11,3.892 11,5L11,34C11,35.108 10.108,36 9,36L6,36C4.892,36 4,35.108 4,34Z" style="fill:rgb(23,23,23);fill-rule:nonzero;"/>
    <path d="M8,34L8,5C8,3.892 8.892,3 10,3L13,3C14.108,3 15,3.892 15,5L15,34C15,35.108 14.108,36 13,36L10,36C8.892,36 8,35.108 8,34Z" style="fill:rgb(15,15,15);fill-rule:nonzero;"/>
    <path d="M9,35L9,4C9,3.446 9.892,3 11,3L12,3C13.108,3 14,3.446 14,4L14,35C14,35.554 13.108,36 12,36L11,36C9.892,36 9,35.554 9,35Z" style="fill:rgb(26,26,26);fill-rule:nonzero;"/>
    <path d="M8,4L8,35L9,35L9,4L8,4Z" style="fill:rgb(78,0,108);fill-rule:nonzero;"/>
    <path d="M10,4L10,35L11,35L11,4L10,4Z" style="fill:rgb(172,0,240);fill-rule:nonzero;"/>
    <path d="M9,4L9,35L10,35L10,4L9,4Z" style="fill:rgb(120,0,168);fill-rule:nonzero;"/>
    <rect x="8" y="35" width="1" height="1" style="fill:rgb(59,0,82);fill-rule:nonzero;"/>
    <rect x="10" y="35" width="1" height="1" style="fill:rgb(154,0,214);fill-rule:nonzero;"/>
    <rect x="9" y="35" width="1" height="1" style="fill:rgb(102,0,143);fill-rule:nonzero;"/>
    <rect x="10" y="3" width="1" height="1" style="fill:rgb(186,10,255);fill-rule:nonzero;"/>
    <rect x="9" y="3" width="1" height="1" style="fill:rgb(139,0,194);fill-rule:nonzero;"/>
    <rect x="8" y="3" width="1" height="1" style="fill:rgb(95,0,133);fill-rule:nonzero;"/>
</svg>
